HIERARCHY
ROOT Hips
{
 OFFSET 0.000000 0.000000 0.000000
 CHANNELS 6 Xposition Yposition Zposition Yrotation Xrotation Zrotation
 JOINT Chest
 {
  OFFSET 0.000000 11.395451 -0.039534
  CHANNELS 3 Yrotation Xrotation Zrotation
  JOINT Chest2
  {
   OFFSET 0.000000 9.398669 0.071813
   CHANNELS 3 Yrotation Xrotation Zrotation
   JOINT Chest3
   {
    OFFSET 0.000000 8.489801 0.000000
    CHANNELS 3 Yrotation Xrotation Zrotation
    JOINT Chest4
    {
     OFFSET 0.000000 8.489801 0.000000
     CHANNELS 3 Yrotation Xrotation Zrotation
     JOINT Neck
     {
      OFFSET 0.000000 12.404889 0.000000
      CHANNELS 3 Yrotation Xrotation Zrotation
      JOINT Head
      {
       OFFSET 0.000000 8.903270 0.092239
       CHANNELS 3 Yrotation Xrotation Zrotation
       End Site
       {
        OFFSET 0.000000 17.592497 0.007158
       }
      }
     }
     JOINT RightCollar
     {
      OFFSET -3.196775 6.966722 0.000000
      CHANNELS 3 Yrotation Xrotation Zrotation
      JOINT RightShoulder
      {
       OFFSET -15.955896 0.000000 0.000000
       CHANNELS 3 Yrotation Xrotation Zrotation
       JOINT RightElbow
       {
        OFFSET -24.792472 0.000000 0.000000
        CHANNELS 3 Yrotation Xrotation Zrotation
        JOINT RightWrist
        {
         OFFSET -20.900115 0.000000 0.025002
         CHANNELS 3 Yrotation Xrotation Zrotation
         End Site
         {
          OFFSET -16.056692 0.000000 0.000000
         }
        }
       }
      }
     }
     JOINT LeftCollar
     {
      OFFSET 3.196775 6.966722 0.000000
      CHANNELS 3 Yrotation Xrotation Zrotation
      JOINT LeftShoulder
      {
       OFFSET 15.955896 0.000000 0.000000
       CHANNELS 3 Yrotation Xrotation Zrotation
       JOINT LeftElbow
       {
        OFFSET 24.792472 0.000000 0.000000
        CHANNELS 3 Yrotation Xrotation Zrotation
        JOINT LeftWrist
        {
         OFFSET 20.900115 0.000000 0.025002
         CHANNELS 3 Yrotation Xrotation Zrotation
         End Site
         {
          OFFSET 16.056692 0.000000 0.000000
         }
        }
       }
      }
     }
    }
   }
  }
 }
 JOINT RightHip
 {
  OFFSET -9.568995 0.193718 0.019767
  CHANNELS 3 Yrotation Xrotation Zrotation
  JOINT RightKnee
  {
   OFFSET 0.000000 -56.649296 0.015402
   CHANNELS 3 Yrotation Xrotation Zrotation
   JOINT RightAnkle
   {
    OFFSET 0.000000 -41.365147 0.021264
    CHANNELS 3 Yrotation Xrotation Zrotation
    JOINT RightToe
    {
     OFFSET 0.000000 -7.465940 17.672538
     CHANNELS 3 Yrotation Xrotation Zrotation
     End Site
     {
      OFFSET 0.000000 -1.736315 7.837145
     }
    }
   }
  }
 }
 JOINT LeftHip
 {
  OFFSET 9.568995 0.193718 0.019767
  CHANNELS 3 Yrotation Xrotation Zrotation
  JOINT LeftKnee
  {
   OFFSET 0.000000 -56.649296 0.015402
   CHANNELS 3 Yrotation Xrotation Zrotation
   JOINT LeftAnkle
   {
    OFFSET 0.000000 -41.365147 0.021264
    CHANNELS 3 Yrotation Xrotation Zrotation
    JOINT LeftToe
    {
     OFFSET 0.000000 -7.465940 17.672538
     CHANNELS 3 Yrotation Xrotation Zrotation
     End Site
     {
      OFFSET 0.000000 -1.736315 7.837145
     }
    }
   }
  }
 }
}
MOTION
Frames: 11
Frame Time: 0.016667
65.473008 106.980834 324.534495 63.425317 -6.786771 -0.288612 -0.949276 4.969795 0.055148 -0.422083 2.208682 0.034661 -0.422083 2.208682 0.034661 -0.316648 1.656489 0.027519 2.782639 15.676838 -1.117773 5.601690 -6.965674 -3.108694 -2.164799 4.972009 6.348721 2.992408 -7.851033 74.239708 7.345492 0.430607 2.469840 -0.312424 0.531226 -0.380296 -0.263646 4.689018 -7.656599 2.317176 -12.691178 -72.228466 -5.897919 7.160043 -3.549320 6.355809 -0.212561 -3.603194 2.495060 7.435950 0.162912 -1.239797 3.321946 -0.068208 -4.049438 -6.318041 -0.360148 0.000000 0.000000 0.000000 5.884723 7.873521 3.678554 -0.351971 6.241033 0.245723 6.777195 -5.977049 -2.776876 0.004317 -0.763193 -1.010712
65.506679 106.964255 324.455457 63.413420 -6.711588 -0.254684 -0.959071 4.945402 0.034256 -0.426211 2.197883 0.025440 -0.426211 2.197883 0.025440 -0.319710 1.648395 0.020611 2.797301 15.665039 -1.121269 5.630881 -6.986583 -3.121230 -2.141878 4.918717 6.365242 2.943487 -7.814454 74.345503 7.276676 0.474963 2.448193 -0.358295 0.557282 -0.396340 -0.238248 4.654037 -7.622284 2.256366 -12.635148 -72.208434 -6.013034 7.158415 -3.604638 6.313141 -0.213445 -3.620481 2.536057 7.354784 0.086371 -1.313001 3.333765 -0.095461 -4.015346 -6.329487 -0.308318 0.000000 0.000000 0.000000 5.842410 7.803297 3.590832 -0.320976 6.253578 0.202988 6.761483 -6.063885 -2.719544 0.003296 -0.677830 -0.984470
65.540350 106.947676 324.376419 63.401570 -6.636398 -0.220777 -0.968870 4.920997 0.013386 -0.430342 2.187079 0.016226 -0.430342 2.187079 0.016226 -0.322776 1.640298 0.013709 2.811959 15.653237 -1.124768 5.660072 -7.007494 -3.133776 -2.118977 4.865422 6.381759 2.894578 -7.777780 74.451235 7.207792 0.519173 2.426404 -0.404202 0.583242 -0.412461 -0.212865 4.619053 -7.587976 2.195567 -12.579118 -72.188487 -6.128207 7.156660 -3.659795 6.270445 -0.214358 -3.637699 2.577103 7.273689 0.009736 -1.386199 3.345623 -0.122733 -3.981279 -6.340974 -0.256484 -0.000000 -0.000000 0.000000 5.800161 7.732970 3.503230 -0.289980 6.266085 0.160249 6.745577 -6.150671 -2.662142 0.002322 -0.592452 -0.958277
65.574279 106.933672 324.299618 63.388691 -6.565928 -0.194263 -0.979528 4.900446 -0.003241 -0.434902 2.177980 0.008913 -0.434902 2.177980 0.008913 -0.326169 1.633479 0.008234 2.824207 15.640839 -1.127934 5.684680 -7.029654 -3.144858 -2.097089 4.815839 6.397804 2.849584 -7.744882 74.548334 7.149044 0.561343 2.409779 -0.453080 0.611804 -0.421029 -0.189682 4.588651 -7.557397 2.134569 -12.529259 -72.166455 -6.236497 7.151271 -3.708342 6.228261 -0.216411 -3.650683 2.613167 7.199233 -0.058231 -1.454232 3.354083 -0.147303 -3.945625 -6.349018 -0.208514 0.000000 0.000000 0.000000 5.755797 7.669283 3.425855 -0.255586 6.276398 0.122406 6.733146 -6.230084 -2.608811 0.001453 -0.513448 -0.935954
65.608400 106.923622 324.226069 63.375047 -6.502061 -0.179099 -0.991517 4.885520 -0.013342 -0.440121 2.171367 0.004523 -0.440121 2.171367 0.004523 -0.330067 1.628523 0.004956 2.833183 15.627127 -1.130799 5.703147 -7.054443 -3.154259 -2.076418 4.772349 6.412429 2.809624 -7.717915 74.634543 7.104368 0.599441 2.400423 -0.507934 0.645592 -0.417384 -0.169982 4.567011 -7.532295 2.070594 -12.489023 -72.140901 -6.340095 7.140661 -3.747862 6.186036 -0.220490 -3.657069 2.642504 7.134025 -0.112102 -1.517263 3.357768 -0.168585 -3.906594 -6.351748 -0.166565 0.000000 -0.000000 0.000000 5.703765 7.615438 3.363976 -0.212270 6.283392 0.092074 6.725853 -6.298820 -2.561893 0.000698 -0.449820 -0.951746
65.642779 106.916146 324.154757 63.360338 -6.442918 -0.171323 -1.004363 4.874456 -0.019201 -0.445766 2.166463 0.002032 -0.445766 2.166463 0.002032 -0.334292 1.624847 0.003105 2.839753 15.612821 -1.133324 5.717035 -7.080480 -3.162180 -2.056742 4.732577 6.426588 2.773584 -7.694747 74.712151 7.069849 0.635597 2.396293 -0.565768 0.682030 -0.406216 -0.152461 4.549962 -7.510915 2.006430 -12.454941 -72.113210 -6.436776 7.126472 -3.780746 6.144346 -0.225688 -3.659210 2.666815 7.075396 -0.157246 -1.575136 3.358040 -0.187147 -3.865951 -6.351031 -0.128481 0.000000 0.000000 0.000000 5.649570 7.568266 3.312317 -0.165560 6.288194 0.066633 6.722139 -6.360215 -2.519079 0.000007 -0.392588 -0.971383
65.677870 106.909677 324.084875 63.342630 -6.387583 -0.166432 -1.017507 4.865821 -0.023446 -0.451560 2.162635 0.000267 -0.451560 2.162635 0.000267 -0.338630 1.621977 0.001799 2.844098 15.599489 -1.135062 5.726440 -7.104875 -3.167765 -2.038418 4.693106 6.442667 2.742005 -7.672833 74.779424 7.043914 0.674200 2.396492 -0.620506 0.716025 -0.393902 -0.135424 4.529563 -7.491722 1.950211 -12.422806 -72.085446 -6.512972 7.110079 -3.807815 6.105421 -0.230425 -3.660039 2.686233 7.021969 -0.201061 -1.622210 3.355580 -0.201987 -3.827407 -6.348981 -0.091653 0.000000 0.000000 0.000000 5.607599 7.524968 3.265129 -0.128639 6.292039 0.043133 6.720865 -6.416909 -2.477549 -0.000617 -0.321109 -0.895914
65.713539 106.903900 324.015997 63.321012 -6.336151 -0.163232 -1.030836 4.859856 -0.026457 -0.457448 2.159991 -0.000944 -0.457448 2.159991 -0.000944 -0.343042 1.619995 0.000910 2.845307 15.587975 -1.137233 5.730066 -7.126042 -3.172908 -2.021128 4.651015 6.461864 2.715004 -7.649499 74.832339 7.028975 0.719467 2.404096 -0.671350 0.746944 -0.380204 -0.117662 4.500182 -7.475050 1.907624 -12.391724 -72.057606 -6.562631 7.091544 -3.831258 6.068404 -0.235719 -3.658827 2.701563 6.973957 -0.245886 -1.656415 3.349521 -0.212138 -3.792271 -6.345839 -0.054913 0.000000 0.000000 0.000000 5.585978 7.484214 3.221220 -0.109615 6.296233 0.020395 6.722480 -6.469299 -2.435978 -0.000974 -0.211788 -0.627477
65.749921 106.899129 323.948550 63.296389 -6.288529 -0.162922 -1.044459 4.856325 -0.027859 -0.463483 2.158426 -0.001431 -0.463483 2.158426 -0.001431 -0.347566 1.618821 0.000564 2.844294 15.577435 -1.138612 5.729209 -7.145568 -3.175701 -2.005186 4.609233 6.482994 2.692450 -7.627455 74.874922 7.022621 0.767233 2.416071 -0.719083 0.775437 -0.365310 -0.100385 4.467452 -7.460551 1.872980 -12.362585 -72.029691 -6.591789 7.070861 -3.849030 6.034159 -0.240549 -3.656338 2.711991 6.931124 -0.289346 -1.679828 3.340720 -0.218559 -3.759230 -6.341355 -0.019428 0.000000 -0.000000 0.000000 5.576565 7.447383 3.181701 -0.100379 6.299489 -0.000396 6.726563 -6.516999 -2.395702 -0.000645 -0.088089 -0.263954
65.787867 106.894752 323.883006 63.269565 -6.243512 -0.164587 -1.058155 4.853068 -0.029136 -0.469552 2.156981 -0.001863 -0.469552 2.156981 -0.001863 -0.352116 1.617739 0.000261 2.843982 15.566917 -1.135084 5.727850 -7.165308 -3.169600 -1.991898 4.573123 6.504877 2.674516 -7.612218 74.917508 7.016038 0.809284 2.422330 -0.759985 0.798330 -0.356210 -0.085533 4.440337 -7.445666 1.837339 -12.333865 -72.003787 -6.605007 7.049314 -3.855642 6.007476 -0.240297 -3.657765 2.715239 6.891423 -0.331767 -1.693020 3.332430 -0.223138 -3.728067 -6.336907 0.013913 0.000000 -0.000000 0.000000 5.569348 7.415732 3.144269 -0.089784 6.299154 -0.018642 6.730657 -6.561465 -2.357879 -0.000000 -0.000000 0.000000
65.827684 106.890656 323.819402 63.241379 -6.200645 -0.168605 -1.072230 4.849691 -0.030806 -0.475785 2.155485 -0.002465 -0.475785 2.155485 -0.002465 -0.356788 1.616617 -0.000169 2.846048 15.554779 -1.122839 5.727793 -7.188442 -3.148208 -1.981789 4.545705 6.527613 2.661876 -7.607362 74.965060 7.005312 0.844974 2.416810 -0.790137 0.812352 -0.357437 -0.074134 4.422882 -7.428599 1.795456 -12.305408 -71.981506 -6.602922 7.024925 -3.847375 5.993461 -0.230737 -3.667119 2.706863 6.853451 -0.373406 -1.692695 3.327209 -0.225511 -3.699206 -6.333642 0.043066 0.000000 0.000000 0.000000 5.560445 7.389348 3.108308 -0.073675 6.294690 -0.033210 6.733778 -6.603071 -2.323458 0.000189 0.023829 0.066348
